<svg width="500" height="500" viewBox="0 0 500 500" fill="none" xmlns="http://www.w3.org/2000/svg">
<circle cx="250" cy="250" r="235" fill="black" stroke="#45E6E6" stroke-width="30"/>
<path d="M141 130C141 127.239 143.239 125 146 125H166C168.761 125 171 127.239 171 130V363C171 365.761 168.761 368 166 368H146C143.239 368 141 365.761 141 363V130Z" fill="black"/>
<path d="M141 130C141 127.239 143.239 125 146 125H166C168.761 125 171 127.239 171 130V363C171 365.761 168.761 368 166 368H146C143.239 368 141 365.761 141 363V130Z" fill="#45E6E6"/>
<path d="M146.069 145.09L169.964 126.951L405.224 436.868L381.329 455.007L146.069 145.09Z" fill="black"/>
<path d="M146.069 145.09L169.964 126.951L405.224 436.868L381.329 455.007L146.069 145.09Z" fill="#45E6E6"/>
<path d="M296 130C296 127.239 298.239 125 301 125H321C323.761 125 326 127.239 326 130V283.3L296 243.787V130Z" fill="black"/>
<path d="M296 130C296 127.239 298.239 125 301 125H321C323.761 125 326 127.239 326 130V283.3L296 243.787V130Z" fill="#45E6E6"/>
<path d="M355 209C355 206.239 357.239 204 360 204H380C382.761 204 385 206.239 385 209V362.3L355 322.787V209Z" fill="black"/>
<path d="M355 209C355 206.239 357.239 204 360 204H380C382.761 204 385 206.239 385 209V362.3L355 322.787V209Z" fill="#45E6E6"/>
<rect x="301.069" y="145.09" width="30" height="257.551" transform="rotate(-37.2023 301.069 145.09)" fill="black"/>
<rect x="301.069" y="145.09" width="30" height="257.551" transform="rotate(-37.2023 301.069 145.09)" fill="#45E6E6"/>
</svg>
